<svg width="15" height="12" viewBox="0 0 15 12" fill="none" xmlns="http://www.w3.org/2000/svg">
<path fill-rule="evenodd" clip-rule="evenodd" d="M8.24408 0.410765C8.56952 0.0853278 9.09715 0.0853278 9.42259 0.410765L14.4226 5.41076C14.4633 5.45144 14.4989 5.49528 14.5294 5.54149C14.7429 5.86495 14.7073 6.30452 14.4226 6.58928L9.42259 11.5893C9.09715 11.9147 8.56952 11.9147 8.24408 11.5893C7.91864 11.2638 7.91864 10.7362 8.24408 10.4108L11.8215 6.83335L1.23529 6.83335C0.829202 6.83335 0.5 6.46026 0.5 6.00002C0.5 5.53978 0.829202 5.16669 1.23529 5.16669L11.8215 5.16669L8.24408 1.58928C7.91864 1.26384 7.91864 0.736202 8.24408 0.410765Z" fill="white"/>
</svg>
