<svg width="24" height="24" viewBox="0 0 24 24" fill="none" xmlns="http://www.w3.org/2000/svg">
<path d="M5.75 2.93457C4.23122 2.93457 3 4.16579 3 5.68457V17.2502C3 17.6645 3.33579 18.0002 3.75 18.0002C4.16421 18.0002 4.5 17.6645 4.5 17.2502V5.68457C4.5 4.99421 5.05964 4.43457 5.75 4.43457H17.25C17.9404 4.43457 18.5 4.99421 18.5 5.68457V12.2776C18.9734 12.069 19.4893 11.9778 20 12.0052V5.68457C20 4.16579 18.7688 2.93457 17.25 2.93457H5.75Z" fill="white"/>
<path d="M20.3063 13.5575L20.1773 13.4517L20.1742 13.4494C19.2943 12.7823 18.0073 12.8628 17.2228 13.6611L13.4197 17.5305C13.1842 17.7701 13.0116 18.0599 12.9166 18.3759L12.3303 20.3283C11.764 20.4144 11.261 20.4066 10.7256 20.3216C10.7015 20.3178 10.6879 20.2919 10.6983 20.2699L10.7325 20.1976L10.7355 20.1912C10.8006 20.053 10.9155 19.8092 10.9528 19.5583C10.9736 19.4184 10.9795 19.2242 10.904 19.0175C10.8229 18.7952 10.6707 18.622 10.4818 18.5059C10.1584 18.307 9.75504 18.2918 9.40872 18.3118C9.13449 18.3276 8.79514 18.3742 8.37789 18.4556C7.91595 18.5456 7.47693 18.7523 7.03945 18.9583C6.46264 19.23 5.88848 19.5003 5.26798 19.5003C5.04503 19.5003 4.8306 19.4639 4.63034 19.3965C4.50723 19.3552 4.37174 19.455 4.40299 19.581C4.45965 19.8096 4.56469 20.1185 4.79525 20.3564C4.92127 20.4864 5.09027 20.6003 5.30333 20.6551C5.51538 20.7095 5.72083 20.6925 5.90086 20.6396C7.35473 20.2128 8.3205 19.9809 8.94874 19.8759C9.08062 19.8539 9.17967 19.9871 9.13919 20.1146C9.07578 20.3142 8.98619 20.6924 9.17263 21.0751C9.37486 21.4902 9.77319 21.664 10.1174 21.7349C11.2602 21.97 12.2462 21.9394 13.4527 21.6227C13.5054 21.6142 13.5581 21.6016 13.6102 21.5847L13.7274 21.5468C13.8985 21.4973 14.0743 21.4423 14.2558 21.3818C14.2831 21.3727 14.3095 21.3621 14.3351 21.3503L15.7228 20.9015C16.0608 20.7922 16.3658 20.6049 16.6105 20.356L20.4049 16.4956C21.1911 15.6948 21.1877 14.4614 20.4233 13.6701L20.3063 13.5575ZM14.4311 18.7883C14.4564 18.7042 14.5025 18.6264 14.5662 18.5616L18.3692 14.6922C18.5987 14.4587 18.9852 14.4454 19.2301 14.6626C19.449 14.8566 19.4792 15.1683 19.3161 15.3959L19.2551 15.4678L15.464 19.3249C15.3979 19.3922 15.3148 19.4433 15.2222 19.4733L14.1181 19.8304L14.4311 18.7883Z" fill="white"/>
</svg>
