<svg width="12" height="12" viewBox="0 0 12 12" fill="none" xmlns="http://www.w3.org/2000/svg">
<path fill-rule="evenodd" clip-rule="evenodd" d="M1.59056 0.410704C1.26512 0.0852667 0.737483 0.0852667 0.412046 0.410704C0.0866095 0.736141 0.0866095 1.26378 0.412046 1.58922L4.82279 5.99996L0.412047 10.4107C0.0866105 10.7361 0.0866105 11.2638 0.412048 11.5892C0.737484 11.9147 1.26512 11.9147 1.59056 11.5892L6.0013 7.17847L10.412 11.5892C10.7375 11.9147 11.2651 11.9147 11.5906 11.5892C11.916 11.2638 11.916 10.7361 11.5906 10.4107L7.17981 5.99996L11.5906 1.58921C11.916 1.26378 11.916 0.736141 11.5906 0.410704C11.2651 0.0852668 10.7375 0.0852668 10.412 0.410704L6.0013 4.82145L1.59056 0.410704Z" fill="#1E2228"/>
</svg>
