<svg width="24" height="24" viewBox="0 0 24 24" fill="none" xmlns="http://www.w3.org/2000/svg">
<path fill-rule="evenodd" clip-rule="evenodd" d="M3.25 5.5C3.25 4.5335 4.0335 3.75 5 3.75H8.5C8.91421 3.75 9.25 4.08579 9.25 4.5C9.25 4.91421 8.91421 5.25 8.5 5.25H5C4.86193 5.25 4.75 5.36193 4.75 5.5V20.25C4.75 20.3881 4.86192 20.5 5 20.5H19C19.1381 20.5 19.25 20.3881 19.25 20.25V5.5C19.25 5.36192 19.1381 5.25 19 5.25H15.5C15.0858 5.25 14.75 4.91421 14.75 4.5C14.75 4.08579 15.0858 3.75 15.5 3.75H19C19.9665 3.75 20.75 4.53351 20.75 5.5V20.25C20.75 21.2165 19.9665 22 19 22H5C4.03351 22 3.25 21.2165 3.25 20.25L3.25 5.5Z" fill="white"/>
<path fill-rule="evenodd" clip-rule="evenodd" d="M7.75 2.75006C7.75 2.33585 8.08579 2.00006 8.5 2.00006H15.5C15.9142 2.00006 16.25 2.33585 16.25 2.75006V6.25006C16.25 6.66427 15.9142 7.00006 15.5 7.00006H8.5C8.08579 7.00006 7.75 6.66427 7.75 6.25006L7.75 2.75006ZM9.25 3.50006V5.50006H14.75V3.50006H9.25Z" fill="white"/>
</svg>
