<svg width="24" height="24" viewBox="0 0 24 24" fill="none" xmlns="http://www.w3.org/2000/svg">
<path fill-rule="evenodd" clip-rule="evenodd" d="M1.25 6.5C1.25 6.08579 1.58579 5.75 2 5.75H12C12.4142 5.75 12.75 6.08579 12.75 6.5C12.75 6.91421 12.4142 7.25 12 7.25H2.75V17.25H21.25V7.25H19C18.5858 7.25 18.25 6.91421 18.25 6.5C18.25 6.08579 18.5858 5.75 19 5.75H22C22.4142 5.75 22.75 6.08579 22.75 6.5V18C22.75 18.4142 22.4142 18.75 22 18.75H2C1.58579 18.75 1.25 18.4142 1.25 18L1.25 6.5Z" fill="white"/>
<path fill-rule="evenodd" clip-rule="evenodd" d="M2.25 18C2.25 17.5858 2.58579 17.25 3 17.25H6C6.41421 17.25 6.75 17.5858 6.75 18V21.25C6.75 21.6642 6.41421 22 6 22H3C2.58579 22 2.25 21.6642 2.25 21.25V18ZM3.75 18.5V20.5H5.25V18.5H3.75Z" fill="white"/>
<path fill-rule="evenodd" clip-rule="evenodd" d="M17.25 18C17.25 17.5858 17.5858 17.25 18 17.25H21C21.4142 17.25 21.75 17.5858 21.75 18V21.25C21.75 21.6642 21.4142 22 21 22H18C17.5858 22 17.25 21.6642 17.25 21.25L17.25 18ZM18.75 18.75V20.5H20.25V18.75H18.75Z" fill="white"/>
<path fill-rule="evenodd" clip-rule="evenodd" d="M4.25 12C4.25 11.5858 4.58579 11.25 5 11.25H9C9.41421 11.25 9.75 11.5858 9.75 12C9.75 12.4142 9.41421 12.75 9 12.75H5C4.58579 12.75 4.25 12.4142 4.25 12Z" fill="white"/>
<path fill-rule="evenodd" clip-rule="evenodd" d="M15.5 3.5C13.9812 3.5 12.75 4.73122 12.75 6.25C12.75 7.76878 13.9812 9 15.5 9C17.0188 9 18.25 7.76878 18.25 6.25C18.25 4.73122 17.0188 3.5 15.5 3.5ZM11.25 6.25C11.25 3.90279 13.1528 2 15.5 2C17.8472 2 19.75 3.90279 19.75 6.25C19.75 8.59721 17.8472 10.5 15.5 10.5C13.1528 10.5 11.25 8.59721 11.25 6.25Z" fill="white"/>
<path d="M15.5 7.75C16.3284 7.75 17 7.07843 17 6.25C17 5.42157 16.3284 4.75 15.5 4.75C14.6716 4.75 14 5.42157 14 6.25C14 7.07843 14.6716 7.75 15.5 7.75Z" fill="white"/>
</svg>
