<svg width="78" height="77" viewBox="0 0 78 77" fill="none" xmlns="http://www.w3.org/2000/svg">
<path d="M3.58 0H0.5V3.08H3.58V0Z" fill="#1E2228"/>
<path d="M6.66 0H3.58V3.08H6.66V0Z" fill="#1E2228"/>
<path d="M9.74 0H6.66V3.08H9.74V0Z" fill="#1E2228"/>
<path d="M12.82 0H9.74V3.08H12.82V0Z" fill="#1E2228"/>
<path d="M15.9 0H12.82V3.08H15.9V0Z" fill="#1E2228"/>
<path d="M18.98 0H15.9V3.08H18.98V0Z" fill="#1E2228"/>
<path d="M22.06 0H18.98V3.08H22.06V0Z" fill="#1E2228"/>
<path d="M28.22 0H25.14V3.08H28.22V0Z" fill="#1E2228"/>
<path d="M31.3 0H28.22V3.08H31.3V0Z" fill="#1E2228"/>
<path d="M40.54 0H37.46V3.08H40.54V0Z" fill="#1E2228"/>
<path d="M43.62 0H40.54V3.08H43.62V0Z" fill="#1E2228"/>
<path d="M52.86 0H49.78V3.08H52.86V0Z" fill="#1E2228"/>
<path d="M59.02 0H55.94V3.08H59.02V0Z" fill="#1E2228"/>
<path d="M62.1 0H59.02V3.08H62.1V0Z" fill="#1E2228"/>
<path d="M65.18 0H62.1V3.08H65.18V0Z" fill="#1E2228"/>
<path d="M68.26 0H65.18V3.08H68.26V0Z" fill="#1E2228"/>
<path d="M71.34 0H68.26V3.08H71.34V0Z" fill="#1E2228"/>
<path d="M74.42 0H71.34V3.08H74.42V0Z" fill="#1E2228"/>
<path d="M77.5 0H74.42V3.08H77.5V0Z" fill="#1E2228"/>
<path d="M3.58 3.08H0.5V6.16H3.58V3.08Z" fill="#1E2228"/>
<path d="M22.06 3.08H18.98L18.98 6.16H22.06V3.08Z" fill="#1E2228"/>
<path d="M37.46 3.08H34.38V6.16H37.46V3.08Z" fill="#1E2228"/>
<path d="M40.54 3.08H37.46V6.16H40.54V3.08Z" fill="#1E2228"/>
<path d="M43.62 3.08H40.54V6.16H43.62V3.08Z" fill="#1E2228"/>
<path d="M52.86 3.08H49.78V6.16H52.86V3.08Z" fill="#1E2228"/>
<path d="M59.02 3.08H55.94V6.16H59.02V3.08Z" fill="#1E2228"/>
<path d="M77.5 3.08H74.42V6.16H77.5V3.08Z" fill="#1E2228"/>
<path d="M3.58 6.16H0.5V9.24H3.58V6.16Z" fill="#1E2228"/>
<path d="M9.74 6.16H6.66V9.24H9.74V6.16Z" fill="#1E2228"/>
<path d="M12.82 6.16H9.74V9.24H12.82V6.16Z" fill="#1E2228"/>
<path d="M15.9 6.16H12.82V9.24H15.9V6.16Z" fill="#1E2228"/>
<path d="M22.06 6.16H18.98V9.24H22.06V6.16Z" fill="#1E2228"/>
<path d="M31.3 6.16H28.22V9.24H31.3V6.16Z" fill="#1E2228"/>
<path d="M37.46 6.16H34.38V9.24H37.46V6.16Z" fill="#1E2228"/>
<path d="M40.54 6.16H37.46V9.24H40.54V6.16Z" fill="#1E2228"/>
<path d="M49.78 6.16H46.7V9.24H49.78V6.16Z" fill="#1E2228"/>
<path d="M59.02 6.16H55.94V9.24H59.02V6.16Z" fill="#1E2228"/>
<path d="M65.18 6.16H62.1V9.24H65.18V6.16Z" fill="#1E2228"/>
<path d="M68.26 6.16H65.18V9.24H68.26V6.16Z" fill="#1E2228"/>
<path d="M71.34 6.16H68.26V9.24H71.34V6.16Z" fill="#1E2228"/>
<path d="M77.5 6.16H74.42V9.24H77.5V6.16Z" fill="#1E2228"/>
<path d="M3.58 9.24H0.5V12.32H3.58V9.24Z" fill="#1E2228"/>
<path d="M9.74 9.24H6.66V12.32H9.74V9.24Z" fill="#1E2228"/>
<path d="M12.82 9.24H9.74V12.32H12.82V9.24Z" fill="#1E2228"/>
<path d="M15.9 9.24H12.82V12.32H15.9V9.24Z" fill="#1E2228"/>
<path d="M22.06 9.24H18.98V12.32H22.06V9.24Z" fill="#1E2228"/>
<path d="M46.7 9.24H43.62V12.32H46.7L46.7 9.24Z" fill="#1E2228"/>
<path d="M59.02 9.24H55.94V12.32H59.02V9.24Z" fill="#1E2228"/>
<path d="M65.18 9.24H62.1V12.32H65.18V9.24Z" fill="#1E2228"/>
<path d="M68.26 9.24H65.18V12.32H68.26V9.24Z" fill="#1E2228"/>
<path d="M71.34 9.24H68.26V12.32H71.34V9.24Z" fill="#1E2228"/>
<path d="M77.5 9.24H74.42V12.32H77.5V9.24Z" fill="#1E2228"/>
<path d="M3.58 12.32H0.5V15.4H3.58V12.32Z" fill="#1E2228"/>
<path d="M9.74 12.32H6.66V15.4H9.74V12.32Z" fill="#1E2228"/>
<path d="M12.82 12.32H9.74V15.4H12.82V12.32Z" fill="#1E2228"/>
<path d="M15.9 12.32H12.82V15.4H15.9V12.32Z" fill="#1E2228"/>
<path d="M22.06 12.32H18.98V15.4H22.06V12.32Z" fill="#1E2228"/>
<path d="M28.22 12.32H25.14V15.4H28.22V12.32Z" fill="#1E2228"/>
<path d="M31.3 12.32H28.22V15.4H31.3V12.32Z" fill="#1E2228"/>
<path d="M37.46 12.32H34.38V15.4H37.46V12.32Z" fill="#1E2228"/>
<path d="M40.54 12.32H37.46V15.4H40.54V12.32Z" fill="#1E2228"/>
<path d="M52.86 12.32H49.78V15.4H52.86V12.32Z" fill="#1E2228"/>
<path d="M59.02 12.32H55.94V15.4H59.02V12.32Z" fill="#1E2228"/>
<path d="M65.18 12.32H62.1V15.4H65.18V12.32Z" fill="#1E2228"/>
<path d="M68.26 12.32H65.18V15.4H68.26V12.32Z" fill="#1E2228"/>
<path d="M71.34 12.32H68.26V15.4H71.34V12.32Z" fill="#1E2228"/>
<path d="M77.5 12.32H74.42V15.4H77.5V12.32Z" fill="#1E2228"/>
<path d="M3.58 15.4H0.5V18.48H3.58V15.4Z" fill="#1E2228"/>
<path d="M22.06 15.4H18.98V18.48H22.06V15.4Z" fill="#1E2228"/>
<path d="M34.38 15.4H31.3V18.48H34.38V15.4Z" fill="#1E2228"/>
<path d="M37.46 15.4H34.38V18.48H37.46V15.4Z" fill="#1E2228"/>
<path d="M43.62 15.4H40.54V18.48H43.62V15.4Z" fill="#1E2228"/>
<path d="M52.86 15.4H49.78V18.48H52.86V15.4Z" fill="#1E2228"/>
<path d="M59.02 15.4H55.94V18.48H59.02V15.4Z" fill="#1E2228"/>
<path d="M77.5 15.4H74.42V18.48H77.5V15.4Z" fill="#1E2228"/>
<path d="M3.58 18.48H0.5V21.56H3.58V18.48Z" fill="#1E2228"/>
<path d="M6.66 18.48L3.58 18.48V21.56H6.66V18.48Z" fill="#1E2228"/>
<path d="M9.74 18.48H6.66V21.56H9.74V18.48Z" fill="#1E2228"/>
<path d="M12.82 18.48H9.74V21.56H12.82V18.48Z" fill="#1E2228"/>
<path d="M15.9 18.48H12.82V21.56H15.9V18.48Z" fill="#1E2228"/>
<path d="M18.98 18.48L15.9 18.48V21.56H18.98L18.98 18.48Z" fill="#1E2228"/>
<path d="M22.06 18.48H18.98L18.98 21.56H22.06V18.48Z" fill="#1E2228"/>
<path d="M28.22 18.48H25.14V21.56H28.22V18.48Z" fill="#1E2228"/>
<path d="M34.38 18.48H31.3V21.56H34.38V18.48Z" fill="#1E2228"/>
<path d="M40.54 18.48H37.46V21.56H40.54V18.48Z" fill="#1E2228"/>
<path d="M46.7 18.48L43.62 18.48V21.56H46.7V18.48Z" fill="#1E2228"/>
<path d="M52.86 18.48H49.78V21.56H52.86V18.48Z" fill="#1E2228"/>
<path d="M59.02 18.48H55.94V21.56H59.02V18.48Z" fill="#1E2228"/>
<path d="M62.1 18.48L59.02 18.48V21.56H62.1V18.48Z" fill="#1E2228"/>
<path d="M65.18 18.48H62.1V21.56H65.18V18.48Z" fill="#1E2228"/>
<path d="M68.26 18.48H65.18V21.56H68.26V18.48Z" fill="#1E2228"/>
<path d="M71.34 18.48H68.26V21.56H71.34V18.48Z" fill="#1E2228"/>
<path d="M74.42 18.48L71.34 18.48V21.56H74.42V18.48Z" fill="#1E2228"/>
<path d="M77.5 18.48H74.42V21.56H77.5V18.48Z" fill="#1E2228"/>
<path d="M28.22 21.56H25.14V24.64H28.22V21.56Z" fill="#1E2228"/>
<path d="M31.3 21.56H28.22V24.64H31.3V21.56Z" fill="#1E2228"/>
<path d="M34.38 21.56H31.3V24.64H34.38V21.56Z" fill="#1E2228"/>
<path d="M37.46 21.56H34.38V24.64H37.46V21.56Z" fill="#1E2228"/>
<path d="M49.78 21.56H46.7L46.7 24.64H49.78V21.56Z" fill="#1E2228"/>
<path d="M3.58 24.64H0.5V27.72H3.58V24.64Z" fill="#1E2228"/>
<path d="M12.82 24.64H9.74V27.72H12.82V24.64Z" fill="#1E2228"/>
<path d="M15.9 24.64H12.82V27.72H15.9V24.64Z" fill="#1E2228"/>
<path d="M18.98 24.64H15.9V27.72H18.98V24.64Z" fill="#1E2228"/>
<path d="M22.06 24.64H18.98V27.72H22.06V24.64Z" fill="#1E2228"/>
<path d="M25.14 24.64H22.06V27.72H25.14V24.64Z" fill="#1E2228"/>
<path d="M28.22 24.64H25.14V27.72H28.22V24.64Z" fill="#1E2228"/>
<path d="M31.3 24.64H28.22V27.72H31.3V24.64Z" fill="#1E2228"/>
<path d="M34.38 24.64H31.3V27.72H34.38V24.64Z" fill="#1E2228"/>
<path d="M49.78 24.64H46.7V27.72H49.78V24.64Z" fill="#1E2228"/>
<path d="M55.94 24.64H52.86V27.72H55.94V24.64Z" fill="#1E2228"/>
<path d="M59.02 24.64H55.94V27.72H59.02V24.64Z" fill="#1E2228"/>
<path d="M65.18 24.64H62.1V27.72H65.18V24.64Z" fill="#1E2228"/>
<path d="M77.5 24.64H74.42V27.72H77.5V24.64Z" fill="#1E2228"/>
<path d="M3.58 27.72H0.5V30.8H3.58V27.72Z" fill="#1E2228"/>
<path d="M6.66 27.72H3.58V30.8H6.66V27.72Z" fill="#1E2228"/>
<path d="M15.9 27.72H12.82V30.8H15.9V27.72Z" fill="#1E2228"/>
<path d="M28.22 27.72H25.14V30.8H28.22V27.72Z" fill="#1E2228"/>
<path d="M34.38 27.72H31.3V30.8H34.38V27.72Z" fill="#1E2228"/>
<path d="M37.46 27.72H34.38V30.8H37.46V27.72Z" fill="#1E2228"/>
<path d="M40.54 27.72H37.46V30.8H40.54V27.72Z" fill="#1E2228"/>
<path d="M46.7 27.72H43.62V30.8H46.7L46.7 27.72Z" fill="#1E2228"/>
<path d="M59.02 27.72H55.94V30.8H59.02V27.72Z" fill="#1E2228"/>
<path d="M62.1 27.72H59.02V30.8H62.1V27.72Z" fill="#1E2228"/>
<path d="M65.18 27.72H62.1V30.8H65.18V27.72Z" fill="#1E2228"/>
<path d="M68.26 27.72H65.18V30.8H68.26V27.72Z" fill="#1E2228"/>
<path d="M74.42 27.72H71.34V30.8H74.42V27.72Z" fill="#1E2228"/>
<path d="M77.5 27.72H74.42V30.8H77.5V27.72Z" fill="#1E2228"/>
<path d="M9.74 30.8H6.66V33.88H9.74V30.8Z" fill="#1E2228"/>
<path d="M12.82 30.8H9.74V33.88H12.82V30.8Z" fill="#1E2228"/>
<path d="M22.06 30.8H18.98V33.88H22.06V30.8Z" fill="#1E2228"/>
<path d="M31.3 30.8H28.22V33.88H31.3V30.8Z" fill="#1E2228"/>
<path d="M37.46 30.8H34.38V33.88H37.46V30.8Z" fill="#1E2228"/>
<path d="M46.7 30.8H43.62V33.88H46.7V30.8Z" fill="#1E2228"/>
<path d="M59.02 30.8H55.94V33.88H59.02V30.8Z" fill="#1E2228"/>
<path d="M65.18 30.8H62.1V33.88H65.18V30.8Z" fill="#1E2228"/>
<path d="M74.42 30.8H71.34V33.88H74.42V30.8Z" fill="#1E2228"/>
<path d="M77.5 30.8H74.42V33.88H77.5V30.8Z" fill="#1E2228"/>
<path d="M3.58 33.88H0.5V36.96H3.58V33.88Z" fill="#1E2228"/>
<path d="M9.74 33.88H6.66V36.96H9.74V33.88Z" fill="#1E2228"/>
<path d="M18.98 33.88H15.9V36.96H18.98L18.98 33.88Z" fill="#1E2228"/>
<path d="M28.22 33.88H25.14V36.96H28.22V33.88Z" fill="#1E2228"/>
<path d="M31.3 33.88H28.22V36.96H31.3V33.88Z" fill="#1E2228"/>
<path d="M40.54 33.88H37.46V36.96H40.54V33.88Z" fill="#1E2228"/>
<path d="M52.86 33.88H49.78V36.96H52.86V33.88Z" fill="#1E2228"/>
<path d="M59.02 33.88H55.94V36.96H59.02V33.88Z" fill="#1E2228"/>
<path d="M62.1 33.88H59.02V36.96H62.1V33.88Z" fill="#1E2228"/>
<path d="M77.5 33.88H74.42V36.96H77.5V33.88Z" fill="#1E2228"/>
<path d="M22.06 36.96H18.98L18.98 40.04H22.06V36.96Z" fill="#1E2228"/>
<path d="M28.22 36.96H25.14V40.04H28.22V36.96Z" fill="#1E2228"/>
<path d="M31.3 36.96H28.22V40.04H31.3V36.96Z" fill="#1E2228"/>
<path d="M40.54 36.96H37.46V40.04H40.54V36.96Z" fill="#1E2228"/>
<path d="M49.78 36.96H46.7V40.04H49.78V36.96Z" fill="#1E2228"/>
<path d="M55.94 36.96H52.86V40.04H55.94V36.96Z" fill="#1E2228"/>
<path d="M59.02 36.96H55.94V40.04H59.02V36.96Z" fill="#1E2228"/>
<path d="M65.18 36.96H62.1V40.04H65.18V36.96Z" fill="#1E2228"/>
<path d="M74.42 36.96H71.34V40.04H74.42V36.96Z" fill="#1E2228"/>
<path d="M9.74 40.04H6.66V43.12H9.74V40.04Z" fill="#1E2228"/>
<path d="M15.9 40.04H12.82V43.12H15.9V40.04Z" fill="#1E2228"/>
<path d="M18.98 40.04H15.9V43.12H18.98L18.98 40.04Z" fill="#1E2228"/>
<path d="M28.22 40.04H25.14V43.12H28.22V40.04Z" fill="#1E2228"/>
<path d="M34.38 40.04H31.3V43.12H34.38V40.04Z" fill="#1E2228"/>
<path d="M37.46 40.04H34.38V43.12H37.46V40.04Z" fill="#1E2228"/>
<path d="M40.54 40.04H37.46V43.12H40.54V40.04Z" fill="#1E2228"/>
<path d="M43.62 40.04H40.54V43.12H43.62V40.04Z" fill="#1E2228"/>
<path d="M52.86 40.04H49.78V43.12H52.86V40.04Z" fill="#1E2228"/>
<path d="M59.02 40.04H55.94V43.12H59.02V40.04Z" fill="#1E2228"/>
<path d="M62.1 40.04H59.02V43.12H62.1V40.04Z" fill="#1E2228"/>
<path d="M65.18 40.04H62.1V43.12H65.18V40.04Z" fill="#1E2228"/>
<path d="M68.26 40.04H65.18V43.12H68.26V40.04Z" fill="#1E2228"/>
<path d="M77.5 40.04H74.42V43.12H77.5V40.04Z" fill="#1E2228"/>
<path d="M3.58 43.12H0.5V46.2H3.58V43.12Z" fill="#1E2228"/>
<path d="M12.82 43.12H9.74V46.2H12.82V43.12Z" fill="#1E2228"/>
<path d="M15.9 43.12H12.82V46.2H15.9V43.12Z" fill="#1E2228"/>
<path d="M18.98 43.12H15.9V46.2H18.98V43.12Z" fill="#1E2228"/>
<path d="M22.06 43.12H18.98V46.2H22.06V43.12Z" fill="#1E2228"/>
<path d="M25.14 43.12H22.06V46.2H25.14V43.12Z" fill="#1E2228"/>
<path d="M28.22 43.12H25.14V46.2H28.22V43.12Z" fill="#1E2228"/>
<path d="M34.38 43.12H31.3V46.2H34.38V43.12Z" fill="#1E2228"/>
<path d="M43.62 43.12H40.54V46.2H43.62V43.12Z" fill="#1E2228"/>
<path d="M49.78 43.12H46.7V46.2H49.78V43.12Z" fill="#1E2228"/>
<path d="M52.86 43.12H49.78V46.2H52.86V43.12Z" fill="#1E2228"/>
<path d="M59.02 43.12H55.94V46.2H59.02V43.12Z" fill="#1E2228"/>
<path d="M68.26 43.12H65.18V46.2H68.26V43.12Z" fill="#1E2228"/>
<path d="M74.42 43.12H71.34V46.2H74.42V43.12Z" fill="#1E2228"/>
<path d="M77.5 43.12H74.42V46.2H77.5V43.12Z" fill="#1E2228"/>
<path d="M12.82 46.2H9.74V49.28H12.82V46.2Z" fill="#1E2228"/>
<path d="M15.9 46.2H12.82V49.28H15.9V46.2Z" fill="#1E2228"/>
<path d="M31.3 46.2H28.22V49.28H31.3V46.2Z" fill="#1E2228"/>
<path d="M34.38 46.2H31.3V49.28H34.38V46.2Z" fill="#1E2228"/>
<path d="M43.62 46.2H40.54V49.28H43.62V46.2Z" fill="#1E2228"/>
<path d="M46.7 46.2H43.62V49.28H46.7L46.7 46.2Z" fill="#1E2228"/>
<path d="M52.86 46.2H49.78V49.28H52.86V46.2Z" fill="#1E2228"/>
<path d="M62.1 46.2L59.02 46.2V49.28H62.1V46.2Z" fill="#1E2228"/>
<path d="M68.26 46.2H65.18V49.28H68.26V46.2Z" fill="#1E2228"/>
<path d="M74.42 46.2H71.34V49.28H74.42V46.2Z" fill="#1E2228"/>
<path d="M77.5 46.2H74.42V49.28H77.5V46.2Z" fill="#1E2228"/>
<path d="M6.66 49.28H3.58V52.36H6.66V49.28Z" fill="#1E2228"/>
<path d="M9.74 49.28H6.66V52.36H9.74V49.28Z" fill="#1E2228"/>
<path d="M18.98 49.28H15.9V52.36H18.98V49.28Z" fill="#1E2228"/>
<path d="M22.06 49.28H18.98V52.36H22.06V49.28Z" fill="#1E2228"/>
<path d="M25.14 49.28H22.06V52.36H25.14V49.28Z" fill="#1E2228"/>
<path d="M28.22 49.28H25.14V52.36H28.22V49.28Z" fill="#1E2228"/>
<path d="M34.38 49.28H31.3V52.36H34.38V49.28Z" fill="#1E2228"/>
<path d="M37.46 49.28H34.38V52.36H37.46V49.28Z" fill="#1E2228"/>
<path d="M40.54 49.28H37.46V52.36H40.54V49.28Z" fill="#1E2228"/>
<path d="M52.86 49.28H49.78V52.36H52.86V49.28Z" fill="#1E2228"/>
<path d="M55.94 49.28H52.86V52.36H55.94V49.28Z" fill="#1E2228"/>
<path d="M59.02 49.28H55.94V52.36H59.02V49.28Z" fill="#1E2228"/>
<path d="M62.1 49.28H59.02V52.36H62.1V49.28Z" fill="#1E2228"/>
<path d="M65.18 49.28H62.1V52.36H65.18V49.28Z" fill="#1E2228"/>
<path d="M71.34 49.28H68.26V52.36H71.34V49.28Z" fill="#1E2228"/>
<path d="M28.22 52.36H25.14V55.44H28.22V52.36Z" fill="#1E2228"/>
<path d="M37.46 52.36H34.38V55.44H37.46V52.36Z" fill="#1E2228"/>
<path d="M40.54 52.36H37.46V55.44H40.54V52.36Z" fill="#1E2228"/>
<path d="M46.7 52.36H43.62V55.44H46.7V52.36Z" fill="#1E2228"/>
<path d="M52.86 52.36H49.78V55.44H52.86V52.36Z" fill="#1E2228"/>
<path d="M65.18 52.36H62.1V55.44H65.18V52.36Z" fill="#1E2228"/>
<path d="M68.26 52.36H65.18V55.44H68.26V52.36Z" fill="#1E2228"/>
<path d="M71.34 52.36H68.26V55.44H71.34V52.36Z" fill="#1E2228"/>
<path d="M3.58 55.44H0.5V58.52H3.58V55.44Z" fill="#1E2228"/>
<path d="M6.66 55.44H3.58V58.52H6.66V55.44Z" fill="#1E2228"/>
<path d="M9.74 55.44H6.66V58.52H9.74V55.44Z" fill="#1E2228"/>
<path d="M12.82 55.44H9.74V58.52H12.82V55.44Z" fill="#1E2228"/>
<path d="M15.9 55.44H12.82V58.52H15.9V55.44Z" fill="#1E2228"/>
<path d="M18.98 55.44H15.9V58.52H18.98V55.44Z" fill="#1E2228"/>
<path d="M22.06 55.44H18.98V58.52H22.06V55.44Z" fill="#1E2228"/>
<path d="M28.22 55.44H25.14V58.52H28.22V55.44Z" fill="#1E2228"/>
<path d="M37.46 55.44H34.38V58.52H37.46V55.44Z" fill="#1E2228"/>
<path d="M40.54 55.44H37.46V58.52H40.54V55.44Z" fill="#1E2228"/>
<path d="M46.7 55.44H43.62V58.52H46.7V55.44Z" fill="#1E2228"/>
<path d="M52.86 55.44H49.78V58.52H52.86V55.44Z" fill="#1E2228"/>
<path d="M59.02 55.44H55.94V58.52H59.02V55.44Z" fill="#1E2228"/>
<path d="M65.18 55.44H62.1V58.52H65.18V55.44Z" fill="#1E2228"/>
<path d="M68.26 55.44H65.18V58.52H68.26V55.44Z" fill="#1E2228"/>
<path d="M71.34 55.44H68.26V58.52H71.34V55.44Z" fill="#1E2228"/>
<path d="M74.42 55.44H71.34V58.52H74.42V55.44Z" fill="#1E2228"/>
<path d="M77.5 55.44H74.42V58.52H77.5V55.44Z" fill="#1E2228"/>
<path d="M3.58 58.52H0.5V61.6H3.58V58.52Z" fill="#1E2228"/>
<path d="M22.06 58.52H18.98L18.98 61.6H22.06V58.52Z" fill="#1E2228"/>
<path d="M28.22 58.52H25.14V61.6H28.22V58.52Z" fill="#1E2228"/>
<path d="M34.38 58.52H31.3V61.6H34.38V58.52Z" fill="#1E2228"/>
<path d="M37.46 58.52H34.38V61.6H37.46V58.52Z" fill="#1E2228"/>
<path d="M40.54 58.52H37.46V61.6H40.54V58.52Z" fill="#1E2228"/>
<path d="M52.86 58.52H49.78V61.6H52.86V58.52Z" fill="#1E2228"/>
<path d="M65.18 58.52H62.1V61.6H65.18V58.52Z" fill="#1E2228"/>
<path d="M71.34 58.52H68.26V61.6H71.34V58.52Z" fill="#1E2228"/>
<path d="M77.5 58.52H74.42V61.6H77.5V58.52Z" fill="#1E2228"/>
<path d="M3.58 61.6H0.5V64.68H3.58V61.6Z" fill="#1E2228"/>
<path d="M9.74 61.6H6.66V64.68H9.74V61.6Z" fill="#1E2228"/>
<path d="M12.82 61.6H9.74V64.68H12.82V61.6Z" fill="#1E2228"/>
<path d="M15.9 61.6H12.82V64.68H15.9V61.6Z" fill="#1E2228"/>
<path d="M22.06 61.6H18.98V64.68H22.06V61.6Z" fill="#1E2228"/>
<path d="M28.22 61.6H25.14V64.68H28.22V61.6Z" fill="#1E2228"/>
<path d="M31.3 61.6H28.22V64.68H31.3V61.6Z" fill="#1E2228"/>
<path d="M34.38 61.6H31.3V64.68H34.38V61.6Z" fill="#1E2228"/>
<path d="M37.46 61.6H34.38V64.68H37.46V61.6Z" fill="#1E2228"/>
<path d="M43.62 61.6H40.54V64.68H43.62V61.6Z" fill="#1E2228"/>
<path d="M46.7 61.6H43.62V64.68H46.7V61.6Z" fill="#1E2228"/>
<path d="M52.86 61.6H49.78V64.68H52.86V61.6Z" fill="#1E2228"/>
<path d="M55.94 61.6H52.86V64.68H55.94V61.6Z" fill="#1E2228"/>
<path d="M59.02 61.6H55.94V64.68H59.02V61.6Z" fill="#1E2228"/>
<path d="M62.1 61.6H59.02V64.68H62.1V61.6Z" fill="#1E2228"/>
<path d="M65.18 61.6H62.1V64.68H65.18V61.6Z" fill="#1E2228"/>
<path d="M77.5 61.6H74.42V64.68H77.5V61.6Z" fill="#1E2228"/>
<path d="M3.58 64.68H0.5V67.76H3.58V64.68Z" fill="#1E2228"/>
<path d="M9.74 64.68H6.66V67.76H9.74V64.68Z" fill="#1E2228"/>
<path d="M12.82 64.68H9.74V67.76H12.82V64.68Z" fill="#1E2228"/>
<path d="M15.9 64.68H12.82V67.76H15.9V64.68Z" fill="#1E2228"/>
<path d="M22.06 64.68H18.98V67.76H22.06V64.68Z" fill="#1E2228"/>
<path d="M28.22 64.68H25.14V67.76H28.22V64.68Z" fill="#1E2228"/>
<path d="M31.3 64.68H28.22V67.76H31.3V64.68Z" fill="#1E2228"/>
<path d="M34.38 64.68H31.3V67.76H34.38V64.68Z" fill="#1E2228"/>
<path d="M40.54 64.68H37.46V67.76H40.54V64.68Z" fill="#1E2228"/>
<path d="M46.7 64.68H43.62V67.76H46.7V64.68Z" fill="#1E2228"/>
<path d="M52.86 64.68H49.78V67.76H52.86V64.68Z" fill="#1E2228"/>
<path d="M55.94 64.68H52.86V67.76H55.94V64.68Z" fill="#1E2228"/>
<path d="M62.1 64.68H59.02V67.76H62.1V64.68Z" fill="#1E2228"/>
<path d="M68.26 64.68H65.18V67.76H68.26V64.68Z" fill="#1E2228"/>
<path d="M77.5 64.68H74.42V67.76H77.5V64.68Z" fill="#1E2228"/>
<path d="M3.58 67.76H0.5V70.84H3.58V67.76Z" fill="#1E2228"/>
<path d="M9.74 67.76H6.66V70.84H9.74V67.76Z" fill="#1E2228"/>
<path d="M12.82 67.76H9.74V70.84H12.82V67.76Z" fill="#1E2228"/>
<path d="M15.9 67.76H12.82V70.84H15.9V67.76Z" fill="#1E2228"/>
<path d="M22.06 67.76H18.98V70.84H22.06V67.76Z" fill="#1E2228"/>
<path d="M31.3 67.76H28.22V70.84H31.3V67.76Z" fill="#1E2228"/>
<path d="M37.46 67.76H34.38V70.84H37.46V67.76Z" fill="#1E2228"/>
<path d="M40.54 67.76H37.46V70.84H40.54V67.76Z" fill="#1E2228"/>
<path d="M49.78 67.76H46.7L46.7 70.84H49.78V67.76Z" fill="#1E2228"/>
<path d="M52.86 67.76H49.78V70.84H52.86V67.76Z" fill="#1E2228"/>
<path d="M59.02 67.76H55.94V70.84H59.02V67.76Z" fill="#1E2228"/>
<path d="M62.1 67.76H59.02V70.84H62.1V67.76Z" fill="#1E2228"/>
<path d="M65.18 67.76H62.1V70.84H65.18V67.76Z" fill="#1E2228"/>
<path d="M68.26 67.76H65.18V70.84H68.26V67.76Z" fill="#1E2228"/>
<path d="M74.42 67.76H71.34V70.84H74.42V67.76Z" fill="#1E2228"/>
<path d="M77.5 67.76H74.42V70.84H77.5V67.76Z" fill="#1E2228"/>
<path d="M3.58 70.84H0.5V73.92H3.58V70.84Z" fill="#1E2228"/>
<path d="M22.06 70.84H18.98V73.92H22.06V70.84Z" fill="#1E2228"/>
<path d="M34.38 70.84H31.3V73.92H34.38V70.84Z" fill="#1E2228"/>
<path d="M37.46 70.84H34.38V73.92H37.46V70.84Z" fill="#1E2228"/>
<path d="M40.54 70.84H37.46V73.92H40.54V70.84Z" fill="#1E2228"/>
<path d="M49.78 70.84H46.7V73.92H49.78V70.84Z" fill="#1E2228"/>
<path d="M52.86 70.84H49.78V73.92H52.86V70.84Z" fill="#1E2228"/>
<path d="M55.94 70.84H52.86V73.92H55.94V70.84Z" fill="#1E2228"/>
<path d="M68.26 70.84H65.18V73.92H68.26V70.84Z" fill="#1E2228"/>
<path d="M71.34 70.84H68.26V73.92H71.34V70.84Z" fill="#1E2228"/>
<path d="M74.42 70.84H71.34V73.92H74.42V70.84Z" fill="#1E2228"/>
<path d="M77.5 70.84H74.42V73.92H77.5V70.84Z" fill="#1E2228"/>
<path d="M3.58 73.92H0.5V77H3.58V73.92Z" fill="#1E2228"/>
<path d="M6.66 73.92H3.58V77H6.66V73.92Z" fill="#1E2228"/>
<path d="M9.74 73.92H6.66V77H9.74V73.92Z" fill="#1E2228"/>
<path d="M12.82 73.92H9.74V77H12.82V73.92Z" fill="#1E2228"/>
<path d="M15.9 73.92H12.82V77H15.9V73.92Z" fill="#1E2228"/>
<path d="M18.98 73.92H15.9V77H18.98L18.98 73.92Z" fill="#1E2228"/>
<path d="M22.06 73.92H18.98L18.98 77H22.06V73.92Z" fill="#1E2228"/>
<path d="M28.22 73.92H25.14V77H28.22V73.92Z" fill="#1E2228"/>
<path d="M37.46 73.92H34.38V77H37.46V73.92Z" fill="#1E2228"/>
<path d="M52.86 73.92H49.78V77H52.86V73.92Z" fill="#1E2228"/>
<path d="M65.18 73.92H62.1V77H65.18V73.92Z" fill="#1E2228"/>
<path d="M68.26 73.92H65.18V77H68.26V73.92Z" fill="#1E2228"/>
<path d="M77.5 73.92H74.42V77H77.5V73.92Z" fill="#1E2228"/>
</svg>
