<svg width="24" height="24" viewBox="0 0 24 24" fill="none" xmlns="http://www.w3.org/2000/svg">
<path fill-rule="evenodd" clip-rule="evenodd" d="M12 2.75C7.99594 2.75 4.75 5.99594 4.75 10C4.75 14.0041 7.99594 17.25 12 17.25C16.0041 17.25 19.25 14.0041 19.25 10C19.25 5.99594 16.0041 2.75 12 2.75ZM3.25 10C3.25 5.16751 7.16751 1.25 12 1.25C16.8325 1.25 20.75 5.16751 20.75 10C20.75 14.8325 16.8325 18.75 12 18.75C7.16751 18.75 3.25 14.8325 3.25 10Z" fill="white"/>
<path fill-rule="evenodd" clip-rule="evenodd" d="M12 6.75C10.2051 6.75 8.75 8.20507 8.75 10C8.75 11.7949 10.2051 13.25 12 13.25C13.7949 13.25 15.25 11.7949 15.25 10C15.25 8.20507 13.7949 6.75 12 6.75ZM7.25 10C7.25 7.37665 9.37665 5.25 12 5.25C14.6234 5.25 16.75 7.37665 16.75 10C16.75 12.6234 14.6234 14.75 12 14.75C9.37665 14.75 7.25 12.6234 7.25 10Z" fill="white"/>
<path fill-rule="evenodd" clip-rule="evenodd" d="M8.38463 16.3568C8.73984 16.5699 8.85507 17.0306 8.642 17.3858L6.55118 20.8715C6.55116 20.8715 6.55119 20.8715 6.55118 20.8715C6.52848 20.9094 6.51619 20.9527 6.51564 20.9969C6.5151 21.0411 6.52628 21.0847 6.54806 21.1231C6.56984 21.1616 6.60143 21.1936 6.63962 21.2159C6.6778 21.2382 6.72122 21.25 6.76543 21.25H17.2322C17.2765 21.25 17.3199 21.2382 17.3581 21.2159C17.3962 21.1936 17.4278 21.1616 17.4496 21.1231C17.4714 21.0847 17.4826 21.0411 17.482 20.9969C17.4815 20.9528 17.4693 20.9096 17.4467 20.8718M17.4467 20.8718L15.3557 17.3858C15.1426 17.0306 15.2578 16.5699 15.613 16.3568C15.9683 16.1438 16.4289 16.259 16.642 16.6142L18.733 20.1002C18.8921 20.3657 18.9781 20.6689 18.9819 20.9783C18.9857 21.2878 18.9074 21.5927 18.755 21.8621C18.6025 22.1314 18.3814 22.3555 18.1141 22.5114C17.8468 22.6674 17.5429 22.7497 17.2334 22.75H6.76483C6.45535 22.7497 6.15088 22.6674 5.88358 22.5114C5.61629 22.3555 5.39514 22.1314 5.24268 21.8621C5.09023 21.5927 5.01193 21.2878 5.01576 20.9783C5.01959 20.6689 5.10542 20.366 5.26449 20.1005L7.35567 16.6142C7.56873 16.259 8.02941 16.1438 8.38463 16.3568" fill="white"/>
</svg>
