<svg width="22" height="22" viewBox="0 0 22 22" fill="none" xmlns="http://www.w3.org/2000/svg">
<path fill-rule="evenodd" clip-rule="evenodd" d="M11 2.25C8.58353 2.25 6.39771 3.22794 4.81281 4.81282C3.22793 6.39773 2.25 8.58353 2.25 11C2.25 13.4165 3.22795 15.6023 4.81282 17.1872C6.39772 18.7721 8.58353 19.75 11 19.75C13.4165 19.75 15.6023 18.7721 17.1872 17.1872C18.7721 15.6023 19.75 13.4165 19.75 11C19.75 8.58353 18.772 6.39771 17.1872 4.81282C15.6023 3.22794 13.4165 2.25 11 2.25ZM11 0.25C8.0317 0.25 5.34317 1.45406 3.3986 3.3986C1.45407 5.34316 0.25 8.0317 0.25 11C0.25 13.9683 1.45406 16.6568 3.3986 18.6014C5.34317 20.5459 8.0317 21.75 11 21.75C13.9683 21.75 16.6568 20.5459 18.6014 18.6014C20.5459 16.6568 21.75 13.9683 21.75 11C21.75 8.0317 20.5459 5.34317 18.6014 3.3986C16.6568 1.45406 13.9683 0.25 11 0.25ZM12.25 16C12.25 16.5523 11.8023 17 11.25 17C10.6977 17 10.25 16.5523 10.25 16C10.25 15.4477 10.6977 15 11.25 15C11.8023 15 12.25 15.4477 12.25 16ZM8.88957 9.24389C9.4362 9.30462 9.92878 8.91261 9.9931 8.36726L9.99353 8.3641C9.99442 8.35781 9.99638 8.34455 9.99974 8.32532C10.0065 8.28659 10.0186 8.22535 10.0383 8.1494C10.0787 7.99351 10.1456 7.79711 10.2492 7.61064C10.4441 7.2598 10.7199 7 11.25 7C12.0995 7 12.3817 7.21105 12.4907 7.33829C12.6283 7.49879 12.75 7.82161 12.75 8.5C12.75 8.60153 12.7038 8.78219 12.5273 9.04686C12.3559 9.30399 12.1088 9.56925 11.831 9.81921C11.5574 10.0655 11.2792 10.2745 11.0672 10.423C10.9621 10.4965 10.8754 10.5537 10.8167 10.5914C10.7873 10.6103 10.7651 10.6242 10.7511 10.6329L10.7355 10.6425L10.7344 10.6432C10.4338 10.824 10.25 11.1492 10.25 11.5V13.5C10.25 14.0523 10.6977 14.5 11.25 14.5C11.8023 14.5 12.25 14.0523 12.25 13.5V12.0362C12.5027 11.8578 12.8338 11.6075 13.169 11.3058C13.5162 10.9932 13.8941 10.6023 14.1914 10.1563C14.4837 9.71781 14.75 9.14847 14.75 8.5C14.75 7.67839 14.6217 6.75121 14.0093 6.03671C13.3683 5.28895 12.4005 5 11.25 5C9.78006 5 8.93092 5.8652 8.50084 6.63936C8.29193 7.01539 8.17127 7.3815 8.10231 7.64748C8.06731 7.78247 8.04427 7.89701 8.02955 7.98132C8.02216 8.02362 8.01681 8.05869 8.01305 8.08537L8.00855 8.11908L8.00709 8.13102L8.00655 8.13573L8.00632 8.13776L8.00611 8.13957C7.94513 8.68848 8.34066 9.1829 8.88957 9.24389Z" fill="#1E2228"/>
</svg>
